<svg width="984" height="984" xmlns="http://www.w3.org/2000/svg">
 <defs>
  <path id="svg_1" d="m0,0z"/>
  <path id="svg_2" d="m349,654.156c-19.0045,6.50489 -36.6697,9.853 -52.9958,9.853c-28.3473,0 -51.8478,-10.6821 -70.3421,-32.1737c-18.4943,-21.4917 -27.6777,-48.6592 -27.6777,-81.5025c0,-8.83263 1.02038,-17.8247 3.02924,-27.3269l105.992,0l0,-77.995l-105.992,0l0,-445.011l-93.0136,0l0,445.011l-75.9861,0l0,77.995l76.1455,0c0,66.6752 16.5173,119.001 49.3288,156.978c33.0028,38.009 76.4963,57.0135 130.512,57.0135c27.0081,0 55.9931,-4.84678 86.987,-14.6679l-25.9877,-68.1738l0.00046,0.0003z"/>
  <path id="svg_3" d="m548.005,-10.0124l-24.0107,0l-153.503,356.015l-152.482,-356.015l-24.0107,0l-186.984,534.007l98.9764,0l111.508,-343.006l139.504,343.006l24.0107,0l143.49,-343.006l120.5,343.006l91.0048,0l-188.004,-534.007l0.0005,0z"/>
  <path id="svg_4" d="m99.0083,449.986l-60.9993,0l0,73.0206l60.9993,0l0,109.34l92.9817,35.6494l0,-144.989l144.001,0l0,-73.0206l-144.001,0l0,-260.164c0,-44.0037 7.52527,-75.3165 22.3526,-94.0021c14.8273,-18.4943 38.838,-27.8052 71.8089,-27.8052c23.8513,0 48.691,5.99471 74.1686,17.9841l13.6794,-81.3431c-38.4873,-9.82112 -80.8329,-14.6679 -127.005,-14.6679c-41.4846,0 -76.4963,15.3375 -105.162,46.172c-28.5067,30.8345 -42.8239,69.6725 -42.8239,116.674l0,297.153l-0.0003,-0.0012z"/>
  <path id="svg_5" d="m464.016,481.011l-46.3633,-65.0171c-9.47036,9.34281 -26.3066,18.1754 -50.4767,26.4979c-24.1701,8.35433 -47.8301,12.4996 -71.1712,12.4996c-50.8275,0 -91.3236,-17.6653 -121.17,-53.1552c-29.846,-35.3305 -44.8328,-83.8302 -44.8328,-145.499c0,-61.3501 15.1781,-108 45.3429,-140.174c30.3243,-32.1737 72.3191,-48.149 125.985,-48.149c41.676,0 83.6708,15.9753 126.016,47.9895l36.6697,-77.995c-49.839,-32.0143 -111.508,-48.0214 -185.198,-48.0214c-71.3306,0 -130.321,24.0107 -176.971,71.8408c-46.5228,47.8301 -69.832,112.847 -69.832,194.509c0,83.5114 24.3296,150.314 72.9887,200.823c48.8186,50.5086 115.494,75.8267 199.994,75.8267c27.3269,0 56.8222,-5.64395 88.677,-16.9956c31.823,-11.3198 55.1641,-22.9903 70.3421,-34.9798l-0.0004,-0.0004z"/>
  <path id="svg_6" d="m72.9887,0l0,714.996l98.0198,0l0,-626.989l322.981,0l0,-88.0074l-421.001,0l0.0002,0.0004z"/>
  <path id="svg_7" d="m387.998,0l0,304.486c0,55.6742 -8.32244,94.6717 -25.1586,117.024c-16.6768,22.3207 -44.8328,33.4811 -84.181,33.4811c-21.1728,0 -43.3341,-6.31357 -66.4838,-19.0045c-23.0222,-12.8185 -40.8469,-28.3154 -53.1871,-47.0011l0,-388.986l-92.9817,0l0,523.006l63.4865,0l29.3358,-67.3448c30.675,51.4971 80.6734,77.3253 150.187,77.3253c114.665,0 171.997,-69.6406 171.997,-209.145l0,-323.842l-93.0136,0l-0.0005,0.001z"/>
  <path id="svg_8" d="m506.68,252.001l-376.678,0c0,-61.1588 16.6768,-108.16 50.1578,-141.003c29.6866,-28.6662 67.6637,-42.9833 114.186,-42.9833c52.9958,0 97.1589,15.6564 132.649,47.0011l38.9975,-67.0259c-14.3171,-14.3171 -36.319,-26.8167 -65.8142,-37.3075c-37.1799,-13.8388 -78.5051,-20.6945 -124.008,-20.6945c-65.8461,0 -121.68,22.3526 -167.501,67.0259c-51.1782,49.1375 -76.6557,115.334 -76.6557,198.336c0,86.3174 26.1471,155.639 78.6646,207.806c46.8097,46.5228 102.325,69.832 166.481,69.832c74.5193,0 133,-20.9815 175.345,-63.1676c41.0063,-40.4962 61.5095,-94.1615 61.5095,-160.996c0,-20.6626 -2.51905,-39.4758 -7.33395,-56.8222l0.00045,-0.001zm-225.025,202.991c-41.4846,0 -76.1455,-13.4881 -104.142,-40.3367c-26.8486,-25.6688 -41.8354,-57.4918 -45.5024,-95.6602l289.978,0c0,37.8496 -11.6705,69.3537 -35.1711,94.6717c-25.8283,27.4864 -60.808,41.3252 -105.162,41.3252l-0.0005,0z"/>
  <path id="svg_9" d="m32.0143,30.9939l32.652,88.0074c51.6565,-33.9913 93.173,-50.9869 124.677,-50.9869c57.141,0 85.6478,24.1383 85.6478,72.3191c0,34.6609 -27.6458,64.3474 -83.0012,89.1553c-42.505,19.5147 -71.1712,34.342 -85.9985,44.5139c-14.8273,10.0124 -27.6458,21.4917 -38.4873,34.342c-11.0009,12.9779 -19.1639,26.6573 -24.489,41.1658c-5.35697,14.4766 -8.00357,29.9735 -8.00357,46.6503c0,43.0152 15.6564,76.4963 47.0011,100.666c31.3128,24.1701 72.1597,36.1596 122.668,36.1596c38.1365,0 86.3174,-11.9894 144.319,-36.1596l-26.3384,-85.8391c-36.8292,29.3358 -73.8178,44.0037 -110.998,44.0037c-22.1613,0 -40.815,-5.16565 -55.9931,-15.6564c-15.1781,-10.4907 -22.6715,-23.66 -22.6715,-39.6671c0,-33.513 19.0045,-58.9905 57.0135,-76.3369l66.4838,-30.3243c40.4962,-18.4943 70.1827,-39.6671 88.677,-63.5184c18.4943,-23.8194 27.8371,-53.6654 27.8371,-89.4742c0,-46.8416 -16.5173,-83.6708 -49.3288,-110.169c-32.8433,-26.4979 -78.3457,-39.8584 -136.507,-39.8584c-55.0046,0 -106.661,13.6794 -155.161,41.0063l0.00107,0.0009z"/>
  <path id="svg_10" d="m672.013,0l0,331.335c0,82.491 -35.6813,123.657 -107.012,123.657c-22.512,0 -43.4935,-6.9832 -63.0082,-20.822c-19.4828,-13.8388 -32.8115,-29.4952 -39.986,-47.1605l0,-387.009l-93.0136,0l0,371.991c0,25.6688 -9.66168,46.0126 -28.985,60.8399c-19.5147,14.8273 -45.0241,22.1613 -77.0065,22.1613c-18.4943,0 -38.3279,-7.14263 -59.3412,-21.4917c-20.9815,-14.349 -35.8407,-30.1649 -44.6733,-47.5112l0,-385.989l-92.9817,0l0,523.006l60.6486,0l30.675,-60.0108c36.0001,46.6822 80.6734,69.9914 134.498,69.9914c74.9976,0 127.324,-23.3092 157.329,-69.9914c10.5226,19.8336 29.846,36.5103 58.1614,49.9984c28.3473,13.3287 57.5237,19.993 87.5291,19.993c54.1437,0 95.9791,-15.9753 125.666,-48.149c29.6547,-32.0143 44.482,-77.0065 44.482,-135.008l0,-349.829l-92.9817,0l0.0001,-0.0014z"/>
  <path id="svg_11" d="m47.0011,-143.171l50.3173,74.1686c54.1756,-36.0001 104.015,-53.9842 149.676,-53.9842c42.1862,0 75.3484,7.14263 99.5185,21.6511c24.3296,14.5085 36.4784,32.4926 36.4784,54.0161c0,42.1543 -30.6432,63.3271 -91.8338,63.3271c-10.4907,0 -29.3358,-2.67849 -56.6627,-8.00357c-27.4864,-5.32509 -48.8186,-8.00357 -63.9967,-8.00357c-74.328,0 -111.508,27.9966 -111.508,84.181c0,17.1551 8.67319,32.8115 26.0196,46.8097c17.3145,13.9983 38.838,24.1701 64.475,30.3562c-73.6584,34.5015 -110.488,94.4804 -110.488,180.001c0,54.6539 19.0045,100.316 57.1729,136.826c38.1684,36.4784 85.1695,54.8133 141.163,54.8133c51.4971,0 91.6744,-10.6502 120.659,-31.823l46.5228,55.8337l60.4891,-57.1729l-55.6742,-42.1543c23.8513,-30.8345 35.6813,-71.3306 35.6813,-121.17c0,-52.8363 -16.5173,-96.9995 -49.3288,-133c-32.8433,-35.8407 -76.018,-56.3439 -129.524,-61.5095l-76.6557,-8.00357c-9.18338,-0.98849 -21.3322,-4.49603 -36.6697,-10.4907c-15.1781,-5.99471 -22.8309,-13.8388 -22.8309,-23.5005c0,-13.3287 16.0071,-19.993 47.8301,-19.993c13.9983,0 35.8407,2.48717 65.4954,7.49338c29.6866,5.00622 51.6565,7.49338 66.0055,7.49338c51.4971,0 91.6744,-12.3083 120.5,-36.8292c28.8256,-24.489 43.1746,-58.6716 43.1746,-102.165c0,-48.149 -21.5235,-86.987 -64.6663,-116.674c-43.1746,-29.4952 -97.8285,-44.3226 -163.993,-44.3226c-33.8637,0 -69.5131,5.99471 -107.012,17.9841c-37.3394,12.0213 -67.5042,26.6892 -90.3351,43.8443l0.0004,0.00065zm196.677,601.161c-32.3332,0 -58.6716,-11.3198 -79.0153,-34.1507c-20.5032,-22.8309 -30.675,-50.668 -30.675,-83.1606c0,-36.5103 9.853,-66.8346 29.6866,-90.6859c19.6741,-23.9788 46.3314,-36.0001 80.0038,-36.0001c33.0028,0 58.831,11.6705 77.4848,35.0116c18.4943,23.3411 27.8371,53.8248 27.8371,91.6744c0,32.4926 -10.0124,60.3297 -30.1649,83.1606c-19.993,22.8309 -45.1835,34.1507 -75.157,34.1507l-0.0001,0z"/>
  <path id="svg_12" d="m398.01,0l0,38.4873c-32.1737,-31.6635 -79.1748,-47.4794 -140.684,-47.4794c-65.4954,0 -118.491,23.5005 -159.338,70.3103c-40.6556,46.8416 -60.9993,109.34 -60.9993,187.526c0,78.5051 23.5005,145.499 70.3421,200.982c46.8416,55.5148 102.835,83.1606 167.501,83.1606c54.1756,0 95.1819,-12.659 123.178,-38.1684l0,242.18l92.9817,0l0,-736.998l-92.9817,0l0.0002,-0.0004zm0,402.347c-23.3411,35.1392 -55.5148,52.645 -96.1704,52.645c-49.6795,0 -90.0163,-18.4943 -120.659,-55.6742c-30.8345,-36.9886 -46.172,-84.1491 -46.172,-141.481c0,-125.825 57.3324,-188.833 171.838,-188.833c14.4766,0 32.1418,4.65546 52.645,13.8388c20.5032,9.31093 33.3535,19.1639 38.5192,29.6547l0,289.85l-0.0008,-0.0003z"/>
  <path id="svg_13" d="m360.83,60.0108c-36.9886,-46.6822 -93.8427,-70.0233 -170.18,-70.0233c-40.9745,0 -76.4963,15.0187 -106.47,44.8328c-30.1967,29.846 -45.1835,66.8346 -45.1835,111.348c0,53.1552 23.1817,97.9879 69.5131,134.817c46.3314,36.6697 105.322,55.0046 177.163,55.0046c19.4828,0 41.676,-4.3366 66.3244,-12.9779c0,84.6593 -37.6582,126.973 -113.166,126.973c-58.002,0 -102.484,-15.6564 -133.829,-47.0011l-38.9975,78.0268c17.6653,14.3171 41.9948,26.4979 72.9887,36.6697c31.1852,10.14 60.8399,15.3056 89.1872,15.3056c75.8267,0 130.991,-17.3145 165.333,-51.8159c34.3101,-34.5015 51.4971,-89.3466 51.4971,-164.663l0,-187.685c0,-45.8212 13.6475,-76.4963 40.9745,-91.8338l0,-45.9807c-37.8177,0 -66.165,5.32509 -84.8187,16.0071c-18.8451,10.6502 -32.1737,28.3154 -40.3367,52.9958l0.0004,0.0003zm-8.83263,196.996c-29.1764,6.66433 -49.6795,9.98055 -61.3182,9.98055c-46.6822,0 -84.8506,-12.1488 -114.346,-36.319c-29.4952,-24.1701 -44.3226,-52.8363 -44.3226,-85.8391c0,-54.4944 31.9824,-81.8214 95.8196,-81.8214c46.8416,0 88.1668,22.3207 124.167,66.994l0,127.005l0.0002,-0.00005z"/>
  <path id="svg_14" d="m172.986,136.985c20.1843,0 37.3394,-7.14263 51.6884,-21.4917c14.1577,-14.3171 21.3322,-31.5041 21.3322,-51.6565c0,-20.3437 -7.17452,-37.6582 -21.3322,-52.1667c-14.349,-14.5085 -31.5041,-21.683 -51.6884,-21.683c-20.1524,0 -37.3075,7.17452 -51.6565,21.683c-14.1577,14.5085 -21.3322,31.823 -21.3322,52.1667c0,20.1524 7.17452,37.3394 21.3322,51.6565c14.349,14.349 31.5041,21.4917 51.6565,21.4917z"/>
  <path id="svg_15" d="m32.0143,262.651c0,80.8648 21.6511,146.169 65.1446,195.848c43.4935,49.6795 100.666,74.4874 171.678,74.4874c74.8382,0 132.84,-23.8194 174.165,-71.6495c41.3252,-47.6707 61.9878,-113.836 61.9878,-198.686c0,-84.3085 -21.1728,-150.824 -63.4865,-199.643c-42.3456,-48.6592 -99.8374,-73.0206 -172.667,-73.0206c-74.6787,0 -132.681,24.6803 -174.325,73.8497c-41.676,49.1694 -62.498,115.494 -62.498,198.814l0.0011,0zm97.9879,0c0,-131.15 46.3314,-196.646 138.835,-196.646c42.9833,0 76.8152,17.5058 101.336,52.6769c24.489,35.1392 36.8292,83.1606 36.8292,143.969c0,129.524 -46.0126,194.35 -138.165,194.35c-42.3456,0 -76.018,-17.1551 -101.177,-51.6565c-25.1586,-34.5015 -37.6582,-82.0127 -37.6582,-142.693l0,-0.0004z"/>
  <path id="svg_16" d="m161.347,720.991c15.8158,0 29.4952,-5.64395 40.815,-16.8362c11.1604,-11.3198 16.8362,-24.8079 16.8362,-40.3367c0,-15.9753 -5.67584,-29.6547 -16.8362,-40.9745c-11.3198,-11.1922 -24.9992,-16.8362 -40.815,-16.8362c-15.6883,0 -29.1764,5.64395 -40.528,16.8362c-11.1604,11.3198 -16.8043,24.9992 -16.8043,40.9745c0,15.8477 5.48452,29.5271 16.6449,40.528c11.0009,11.1604 24.6803,16.6449 40.6875,16.6449l-0.0001,0zm-51.3376,-720.991l0,445.011l-72.0003,0l0,77.995l164.982,0l0,-523.006l-92.9817,0z"/>
  <path id="svg_17" d="m0,0z"/>
  <path id="svg_18" d="m493.989,413.986c0,-11.3198 -4.8149,-19.993 -14.4766,-25.9877c-9.69357,-5.99471 -27.1675,-10.6502 -52.5175,-13.9983c-61.3182,-10.6821 -95.6602,-16.6768 -102.994,-17.9841l-65.0171,-11.0009c0,-34.6928 0.51019,-71.0118 1.53056,-109.021c0.98849,-38.009 2.48717,-71.3306 4.49603,-99.9968c2.6466,-38.6786 7.33395,-68.3333 13.9983,-88.9959c6.66433,-20.6626 10.3313,-32.3332 11.0009,-35.0116c0,-6.66433 -4.17716,-12.8185 -12.4996,-18.4943c-8.35433,-5.67584 -16.1666,-8.48187 -23.5005,-8.48187c-4.01773,0 -7.33395,1.14792 -10.0124,3.47565c-2.67849,2.35962 -5.00622,6.18603 -6.9832,11.5111c-4.01773,9.34281 -7.84414,26.6573 -11.5111,52.0073c-3.66697,25.3181 -6.50489,53.3146 -8.51376,83.9897c-1.97698,27.3269 -3.47565,59.1818 -4.49603,95.5008c-0.98849,36.3509 -1.49868,71.4901 -1.49868,105.513c-37.3394,-6.02659 -75.6672,-13.3287 -114.984,-22.0018c-35.3305,-7.33395 -56.3439,-11.0009 -63.0082,-11.0009c-8.00357,0 -15.497,2.32773 -22.512,6.9832c-6.9832,4.68735 -10.4907,11.0009 -10.4907,19.0045c0,8.67319 2.99735,14.349 8.99206,16.9956c5.99471,2.67849 16.0071,4.01773 30.0054,4.01773c10.0124,0 24.6803,1.81754 44.0037,5.48452c19.3234,3.66697 31.6635,6.18603 36.9886,7.49338c44.6733,8.67319 74.9976,14.349 91.0048,17.0275c0,13.9983 -0.66962,32.3332 -2.00886,54.9727c-1.30736,30.675 -1.97698,54.0161 -1.97698,70.0233c0,25.9877 0.82906,46.1401 2.48717,60.4891c1.65811,14.349 4.84678,27.1675 9.50225,38.4873c5.32509,13.3605 15.3375,20.0249 30.0054,20.0249c5.99471,0 9.98055,-1.02038 11.9894,-2.99735c2.00886,-2.00886 2.99735,-5.67584 2.99735,-11.0009c0,-4.01773 -1.65811,-15.6883 -5.00622,-35.0116c-3.31622,-19.3234 -4.97433,-44.9922 -4.97433,-77.0065c0,-24.6484 0.66962,-52.3261 1.97698,-83.0012l1.02038,-27.0081c30.0054,4.68735 89.3148,17.0275 177.992,37.0205c5.32509,1.33924 9.82112,5.99471 13.4881,13.9983c3.66697,8.00357 7.52527,11.9894 11.5111,11.9894c7.33395,0 14.8273,-4.14528 22.512,-12.4996c7.65282,-8.32244 11.4792,-16.8362 11.4792,-25.5094l0.00008,0.00034z"/>
  <path id="svg_19" d="m540.002,74.0091c0,-8.67319 -3.82641,-15.6883 -11.5111,-21.0134c-7.65282,-5.32509 -16.8362,-8.32244 -27.4864,-8.99206l-171.997,-13.0098l-119.001,-9.98055l-62.0197,-5.00622c-5.32509,0 -10.14,3.31622 -14.4766,9.98055c-4.3366,6.66433 -6.50489,13.0098 -6.50489,19.0045c0,4.68735 1.49868,8.16301 4.49603,10.5226c2.99735,2.32773 6.34546,3.98584 10.0124,4.97433c3.66697,1.02038 6.15414,1.84943 7.49338,2.51905c0.66962,36.0001 0.98849,119.99 0.98849,252.001c0,97.3183 -3.82641,172.826 -11.5111,226.492c-7.65282,53.6654 -11.4792,82.491 -11.4792,86.5087c0,9.31093 3.50754,16.6449 10.4907,22.0018c7.01508,5.32509 14.1577,8.00357 21.4917,8.00357c4.68735,0 8.35433,-1.84943 11.0009,-5.51641c2.67849,-3.66697 4.68735,-9.50225 6.02659,-17.5058c6.66433,-22.6715 11.83,-64.3156 15.497,-124.996c3.66697,-60.6486 5.48452,-124.008 5.48452,-189.981c0,-56.025 -0.31887,-108 -0.98849,-156.022c-0.66962,-47.9895 -1.02038,-80.3227 -1.02038,-96.9995c8.67319,0.66962 25.35,1.84943 49.9984,3.50754c24.6803,1.65811 49.9984,3.50754 76.018,5.48452c38.6786,4.68735 82.3316,11.6705 130.991,21.0134c39.3482,7.33395 63.0082,11.0009 71.0118,11.0009c7.33395,0 11.9894,-3.34811 13.9983,-10.0124c2.00886,-6.66433 2.99735,-14.6679 2.99735,-23.9788l-0.0007,-0.00052z"/>
  <path id="svg_20" d="m393.993,-7.01508c0,-7.97168 -3.31622,-14.8273 -9.98055,-20.4713c-6.66433,-5.67584 -14.6679,-8.51376 -24.0107,-8.51376c-6.66433,0 -12.3402,1.49868 -16.9956,4.49603c-4.68735,2.99735 -7.01508,7.17452 -7.01508,12.4996c0,27.3269 2.00886,69.6725 5.99471,127.005c4.01773,61.3182 6.02659,112.337 6.02659,152.993c0,39.3482 -1.17981,71.522 -3.50754,96.5212c-2.32773,24.9992 -7.84414,37.4988 -16.5173,37.4988c-22.6396,0 -47.4794,-28.1879 -74.4874,-84.4999c-27.0081,-56.3439 -57.8425,-130.512 -92.5034,-222.506l-14.9868,-40.0179c-2.67849,-6.66433 -7.17452,-11.9894 -13.52,-15.9753c-6.31357,-4.01773 -12.8185,-6.02659 -19.4828,-6.02659c-8.00357,0 -13.3287,0.66962 -16.0071,2.00886c-2.67849,1.33924 -4.3366,5.32509 -5.00622,11.9894l-8.00357,82.0127l-14.9868,144.001c-4.65546,57.3324 -10.3313,107.331 -16.9956,149.995c-2.00886,10.0124 -2.99735,17.6653 -2.99735,22.9903c0,10.0124 4.3366,18.1754 12.9779,24.5209c8.67319,6.31357 18.6856,9.50225 30.0054,9.50225c6.66433,0 11.5111,-16.0071 14.5085,-48.0214c2.99735,-31.9824 6.15414,-83.6389 9.50225,-155.001l3.98584,-52.9958c5.35697,-67.3129 8.35433,-109.977 9.02395,-127.993c1.97698,4.01773 3.82641,8.51376 5.48452,13.52c1.65811,4.97433 3.82641,10.4907 6.50489,16.4854c36.0001,93.3325 69.832,171.168 101.495,233.507c31.6635,62.3386 62.1791,93.4919 91.5149,93.4919c20.6626,0 34.8203,-17.5058 42.4731,-52.4856c7.6847,-35.0116 12.4996,-79.8444 14.5085,-134.53c2.00886,-60.6486 2.99735,-149.326 2.99735,-265.999l0.00041,-0.00179z"/>
  <path id="svg_21" d="m642.996,576.991c0,-47.9895 -2.00886,-99.3272 -5.99471,-153.981c-3.98584,-54.6858 -8.32244,-102.994 -13.0098,-145.021c-3.31622,-36.0001 -9.66168,-75.6672 -19.0045,-119.001c-9.31093,-43.3341 -20.6626,-80.4821 -33.9913,-111.476c-13.3287,-31.0258 -27.0081,-46.5228 -41.0063,-46.5228c-8.64131,0 -18.6537,15.0187 -30.0054,45.0241c-11.3198,29.9735 -25.9877,73.9772 -43.9718,131.979l-17.0275,55.9931c-11.9894,38.6786 -25.3181,77.8355 -39.986,117.503c-14.6679,39.6671 -25.9877,67.855 -33.9913,84.4999l-43.0152,-146.998c-39.3163,-134.658 -67.9825,-227.002 -85.9985,-277c-0.66962,-1.30736 -2.48717,-6.15414 -5.48452,-14.4766c-2.99735,-8.35433 -8.16301,-14.6679 -15.497,-19.0045c-7.33395,-4.3366 -17.0275,-6.50489 -29.0169,-6.50489c-2.6466,0 -8.16301,17.3145 -16.4854,52.0073c-8.35433,34.6609 -16.8362,72.9887 -25.5094,114.984c-22.0018,95.3413 -33.6724,145.659 -35.0116,151.016c-15.9753,65.3359 -29.1445,114.314 -39.4758,146.998c-10.3313,32.652 -19.5147,52.3261 -27.5183,58.9905c-11.3198,8.67319 -16.9956,18.016 -16.9956,27.9966c0,4.68735 3.50754,9.853 10.4907,15.497c7.01508,5.67584 15.1781,8.51376 24.5209,8.51376c8.00357,0 14.3171,-0.51019 19.0045,-1.49868c4.65546,-1.02038 8.32244,-3.82641 10.969,-8.51376c9.34281,-15.3375 27.3588,-80.0038 54.0161,-193.999c2.67849,-8.67319 5.99471,-21.6511 10.0124,-38.9975c13.9983,-58.002 25.6688,-108 34.9798,-149.995c5.32509,-21.3322 9.853,-40.4962 13.52,-57.4918c3.66697,-16.9956 6.82376,-29.846 9.50225,-38.5192c0.63773,5.99471 7.33395,29.3358 19.993,70.0233c22.0018,67.9825 38.9975,125.666 50.9869,172.986c12.659,47.9895 24.3296,87.848 35.0116,119.511c10.6502,31.6635 19.0045,51.4971 24.9992,59.5007c3.98584,4.65546 9.50225,8.83263 16.4854,12.4996c7.01508,3.66697 13.8388,5.48452 20.5032,5.48452c4.68735,0 8.35433,-1.49868 11.0009,-4.49603c2.67849,-2.99735 5.00622,-6.82376 7.01508,-11.5111c1.97698,-4.65546 3.98584,-8.64131 5.99471,-11.9894c6.66433,-13.3287 17.5058,-41.3252 32.4926,-83.9897c14.9868,-42.6645 28.5067,-84.6912 40.4962,-126.016l13.9983,-45.9807c21.3322,-74.0091 37.0205,-123.338 47.0011,-148.018c23.3411,46.6822 39.3482,124.677 48.0214,234.017c4.65546,41.3252 6.9832,99.6461 6.9832,174.994l-0.98849,100.985c0,8.67319 0.98849,14.8273 2.99735,18.4943c2.00886,3.66697 6.66433,5.51641 13.9983,5.51641c8.00357,0 15.6564,-2.48717 22.9903,-7.49338c7.33395,-5.00622 11.0009,-10.5226 11.0009,-16.5173l0.00003,-0.00175z"/>
  <path id="svg_22" d="m382.003,442.014c0,-15.3375 -3.66697,-48.691 -11.0009,-100.029c-8.00357,-58.6397 -12.3402,-91.6425 -13.0098,-98.9764c-8.67319,-82.0127 -14.8273,-144.511 -18.4943,-187.494c-3.66697,-43.0152 -5.48452,-81.8533 -5.48452,-116.514c0,-28.6662 2.1683,-51.3376 6.47301,-68.0144c4.3366,-16.6449 9.02395,-29.8141 13.9983,-39.4758c5.00622,-9.66168 7.52527,-15.497 7.52527,-17.5058c0,-5.99471 -5.35697,-11.3517 -16.0071,-16.0071c-10.6821,-4.65546 -21.683,-6.9832 -33.0028,-6.9832c-8.67319,0 -15.497,11.6387 -20.5032,34.9798c-5.00622,23.3411 -7.49338,59.6601 -7.49338,109.021c0,37.3075 3.66697,87.6566 11.0009,150.984l14.9868,138.006c-17.9841,-34.6609 -40.1454,-67.8231 -66.4838,-99.5185c-26.3384,-31.6635 -53.5059,-47.4794 -81.5025,-47.4794c-26.0196,0 -49.3288,22.6715 -69.9914,67.9825c-20.6945,45.3429 -36.8611,96.6806 -48.4997,154.013c-11.6705,57.3324 -17.5058,99.3272 -17.5058,125.985c0,16.6768 5.00622,24.9992 14.9868,24.9992c14.6679,0 24.0107,-13.6475 27.9966,-40.9745c25.35,-185.358 60.6805,-278.02 106.023,-278.02c17.9841,0 33.8318,7.17452 47.4794,21.5235c13.6794,14.3171 29.846,36.4784 48.4997,66.4838c8.67319,13.9983 18.016,32.6839 27.9966,55.9931c10.0124,23.3411 17.6653,42.6645 23.0222,58.002l6.9832,101.017c1.33924,15.3375 3.34811,26.1471 5.99471,32.4926c2.67849,6.34546 8.00357,9.50225 16.0071,9.50225c6.66433,0 13.3287,-3.82641 19.993,-11.5111c6.66433,-7.65282 10.0124,-15.1462 10.0124,-22.4802l0.00021,-0.00135z"/>
  <path id="svg_23" d="m138.006,622.015c0,-2.00886 -1.33924,-19.0045 -4.01773,-51.0188c-9.98055,-97.9879 -14.9868,-196.008 -14.9868,-293.996c0,-21.3322 1.33924,-43.0152 3.98584,-64.9852c2.67849,-22.0018 4.01773,-35.0116 4.01773,-39.0294c0,-15.9753 -6.66433,-23.9788 -19.993,-23.9788c-4.68735,0 -9.69357,5.48452 -15.0187,16.4854c-5.32509,11.0009 -9.82112,25.35 -13.4881,43.0152c-3.66697,17.6653 -5.51641,36.1596 -5.51641,55.4829c0,53.3465 2.67849,160.008 8.00357,320.015c0.66962,19.3234 4.17716,37.3394 10.5226,53.9842c6.31357,16.6768 17.4739,24.9992 33.4811,24.9992c5.32509,0 8.83263,-2.83792 10.4907,-8.48187c1.69,-5.67584 2.51905,-16.5173 2.51905,-32.4926l0.00015,0.00077zm33.9913,-632.027c0,-9.98055 -11.0009,-14.9868 -33.0028,-14.9868c-12.659,0 -22.9903,3.82641 -30.9939,11.5111c-8.00357,7.65282 -13.6794,16.326 -16.9956,25.9877c-3.34811,9.66168 -5.00622,17.1551 -5.00622,22.512c0,7.33395 3.50754,14.3171 10.4907,20.9815c7.01508,6.66433 14.1896,10.0124 21.5235,10.0124c4.65546,0 8.32244,-2.00886 11.0009,-5.99471c2.6466,-4.01773 5.64395,-9.66168 8.99206,-16.9956c5.32509,-12.0213 10.6502,-20.0249 16.0071,-24.0107c5.32509,-4.01773 9.66168,-9.18338 12.9779,-15.497c3.34811,-6.34546 5.00622,-10.8415 5.00622,-13.52l0.00014,0.00011z"/>
  <path id="svg_24" d="m542.011,506.999c0,-3.34811 -4.49603,-8.00357 -13.52,-13.9983c-8.99206,-5.99471 -14.4766,-10.3313 -16.4854,-13.0098c-34.6609,-39.3163 -66.994,-95.6602 -96.9995,-169c-30.0054,-73.3395 -53.6654,-152.674 -71.0118,-238.003c-2.00886,-9.98055 -5.32509,-29.9735 -9.98055,-59.979l-5.00622,-35.0116c-2.00886,-10.6502 -6.50489,-19.0045 -13.52,-24.9992c-6.9832,-5.99471 -19.1639,-8.99206 -36.4784,-8.99206c-3.34811,0 -14.6679,20.1524 -34.0231,60.4891c-19.3234,40.3367 -39.6671,83.8302 -60.9993,130.512l-42.9833,94.0021c-25.9877,56.6627 -47.6707,100.985 -65.0171,133c-17.3145,31.9824 -29.9735,47.9895 -37.9771,47.9895c-2.67849,0 -4.84678,-1.65811 -6.50489,-5.00622c-1.65811,-3.31622 -3.50754,-5.00622 -5.51641,-5.00622c-3.31622,0 -6.15414,1.49868 -8.48187,4.52792c-2.32773,2.99735 -3.50754,6.15414 -3.50754,9.47036c0,8.67319 4.84678,20.0249 14.5085,34.0231c9.66168,13.9983 19.1639,20.9815 28.5067,20.9815c6.66433,0 11.6387,-1.33924 14.9868,-3.98584c3.34811,-2.67849 6.34546,-5.67584 8.99206,-8.99206c2.67849,-3.34811 4.68735,-6.02659 5.99471,-8.00357c16.0071,-19.993 43.6848,-72.6699 83.0012,-157.999c13.9983,-30.0054 48.691,-108.351 104.015,-235.005l22.9903,-52.9958c0,17.3145 3.34811,45.3111 10.0124,83.9897c14.6679,78.6646 36.6697,156.66 66.0055,234.017c29.3358,77.3253 63.6459,141.992 102.994,193.999c8.00357,10.6502 14.5085,18.1436 19.4828,22.4802c5.00622,4.3366 11.5111,6.50489 19.5147,6.50489c3.31622,0 8.67319,-5.16565 16.0071,-15.497c7.33395,-10.3313 11.0009,-17.1551 11.0009,-20.5032l-0.00019,0.0005z"/>
  <path id="svg_25" d="m429.004,254.998c4.65546,0 6.9832,-5.00622 6.9832,-14.9868c0,-12.0213 -8.83263,-38.3597 -26.4979,-79.0153c-17.6653,-40.6556 -44.3226,-78.3138 -80.0038,-113.007c-35.6494,-34.6609 -79.4936,-51.9754 -131.501,-51.9754c-42.6645,0 -78.3138,13.3287 -106.98,39.986c-28.6662,26.6573 -43.0152,67.6637 -43.0152,122.987c0,52.0073 12.0213,103.504 36.0001,154.523c24.0107,50.9869 55.3554,92.6629 94.0021,124.996c38.6786,32.3332 78.6646,48.4997 120.022,48.4997c24.6484,0 45.5024,-5.51641 62.498,-16.5173c16.9956,-11.0009 25.4775,-26.8167 25.4775,-47.4794c0,-23.3411 -13.1692,-46.0126 -39.4758,-68.0144c-26.3384,-22.0018 -60.521,-41.3252 -102.516,-58.002c-41.9948,-16.6449 -85.3289,-28.6662 -130.002,-36.0001c-8.00357,-30.675 -11.9894,-60.6486 -11.9894,-89.9844c0,-38.6786 9.15149,-68.684 27.4864,-90.0163c18.3349,-21.3322 44.5139,-31.9824 78.5051,-31.9824c51.3376,0 93.0136,18.3349 124.996,55.0046c32.0143,36.6379 58.6716,77.995 80.0038,123.976c1.33924,2.67849 3.66697,7.84414 7.01508,15.497c3.31622,7.6847 6.31357,11.5111 8.99206,11.5111l-0.00024,0.0004zm-88.0074,157.01c0,10.6502 -5.48452,19.0045 -16.4854,24.9992c-11.0009,5.99471 -23.8513,8.99206 -38.5192,8.99206c-25.3181,0 -49.6477,-8.32244 -72.9887,-24.9992c-23.3411,-16.6768 -42.8239,-36.6697 -58.5122,-60.0108c-15.6564,-23.3092 -25.8283,-44.0037 -30.4837,-61.9878c30.675,3.31622 63.0082,11.9894 96.9995,25.9877c33.9913,13.9983 62.498,29.3358 85.4883,46.0126c22.9903,16.6768 34.5015,30.3243 34.5015,41.0063l-0.0001,-0.00006z"/>
  <path id="svg_26" d="m410.988,140.015c0,-29.3358 -11.83,-57.5237 -35.4899,-84.4999c-23.66,-27.0081 -54.8452,-48.691 -93.4919,-65.0171c-38.6786,-16.326 -79.0153,-24.489 -121.01,-24.489c-28.6662,0 -47.9895,2.6466 -58.002,8.00357c-9.98055,5.32509 -14.9868,12.659 -14.9868,22.0018c0,5.99471 7.65282,16.4854 22.9903,31.4722c15.3375,15.0187 25.6688,22.512 30.9939,22.512c8.00357,0 12.0213,-1.65811 12.0213,-5.00622c0,-2.6466 -1.69,-5.32509 -5.00622,-8.00357c-3.34811,-2.6466 -5.00622,-4.97433 -5.00622,-6.9832c0,-2.67849 4.17716,-5.32509 12.4996,-8.00357c8.32244,-2.67849 18.4943,-4.01773 30.5156,-4.01773c27.9966,0 56.1525,5.19754 84.4999,15.5288c28.3154,10.3313 51.4971,23.8194 69.4812,40.4962c18.016,16.6449 27.0081,34.3101 27.0081,52.9958c0,17.9841 -5.67584,32.3332 -16.9956,42.9833c-11.3517,10.6821 -25.5094,18.5262 -42.505,23.5005c-16.9956,5.00622 -45.5024,12.1807 -85.4883,21.5235c-44.0037,9.98055 -78.1863,18.8132 -102.516,26.4979c-24.3296,7.65282 -43.8443,17.3145 -58.5122,28.985c-14.6679,11.6705 -22.0018,26.4979 -22.0018,44.5139c0,31.9824 15.6883,61.3182 47.0011,87.9755c31.3447,26.6892 67.3448,47.6707 108,63.0082c40.6875,15.3375 72.0003,23.0222 94.0021,23.0222c22.6715,0 34.0231,-6.69622 34.0231,-20.0249c0,-8.00357 -2.67849,-16.8362 -8.00357,-26.4979c-5.35697,-9.66168 -13.3287,-14.4766 -24.0107,-14.4766c-3.98584,0 -8.32244,1.49868 -13.0098,4.49603c-4.65546,2.99735 -9.31093,4.49603 -13.9983,4.49603c-13.3287,0 -34.3101,-4.3366 -62.9763,-13.0098c-28.6662,-8.67319 -54.6858,-21.6511 -78.0268,-38.9975c-23.3092,-17.3464 -34.9798,-38.3279 -34.9798,-63.0082c0,-16.0071 9.15149,-27.8371 27.4864,-35.4899c18.3349,-7.6847 52.5175,-17.1551 102.516,-28.5067c5.99471,-2.00886 11.9894,-3.50754 17.9841,-4.49603c5.99471,-0.98849 11.3517,-2.1683 16.0071,-3.50754c51.3376,-11.9894 90.654,-25.6688 118.013,-41.0063c27.3269,-15.3056 40.9745,-38.3279 40.9745,-68.971l-0.00009,0.00023z"/>
  <path id="svg_27" d="m118.013,667.995c0,-11.3198 -8.67319,-16.9956 -26.0196,-16.9956c-12.659,0 -23.9788,3.82641 -33.9913,11.5111c-10.0124,7.65282 -18.016,16.1666 -24.0107,25.4775c-5.99471,9.34281 -8.99206,16.3579 -8.99206,21.0134c0,7.33395 3.50754,14.3171 10.4907,21.0134c7.01508,6.66433 14.1896,9.98055 21.5235,9.98055c4.65546,0 8.83263,-2.1683 12.4996,-6.50489c3.66697,-4.3366 7.81225,-10.8096 12.4996,-19.4828c4.65546,-9.34281 9.31093,-16.326 13.9983,-21.0134c1.97698,-2.00886 6.15414,-6.15414 12.4996,-12.4996c6.31357,-6.31357 9.50225,-10.4907 9.50225,-12.4996l0.00011,-0.00006zm40.9745,-693.983c0,-56.025 -10.3313,-98.0198 -30.9939,-126.016c-20.6626,-27.9966 -47.9895,-41.9948 -81.9808,-41.9948c-28.0284,0 -52.0073,4.84678 -72.0003,14.5085c-20.0249,9.66168 -35.0116,21.1728 -45.0241,34.5015c-9.98055,13.3287 -14.9868,25.9877 -14.9868,37.9771c0,5.35697 2.1683,10.6821 6.50489,16.0071c4.3366,5.32509 7.81225,8.00357 10.4907,8.00357c4.01773,0 7.17452,-1.65811 9.50225,-5.00622c2.32773,-3.31622 4.17716,-5.99471 5.51641,-8.00357c13.3287,-17.9841 26.4979,-31.6635 39.4758,-40.9745c13.0098,-9.34281 28.8575,-14.0302 47.5112,-14.0302c29.3358,0 49.6795,9.853 60.9993,29.5271c11.3198,19.6422 16.9956,49.8071 16.9956,90.4946c0,22.0018 -1.49868,49.4882 -4.49603,82.491c-2.99735,33.0028 -6.15414,64.1561 -9.50225,93.4919c-0.66962,9.34281 -1.65811,18.6856 -2.99735,27.9966c-1.33924,9.34281 -2.32773,18.6856 -2.99735,28.0284c-4.01773,45.3111 -10.6821,98.3068 -19.993,158.987c-6.66433,44.6733 -10.0124,72.6699 -10.0124,83.9897c0,9.34281 0.98849,15.497 2.99735,18.4943c2.00886,3.02924 7.33395,4.52792 16.0071,4.52792c11.9894,0 21.1728,-8.19489 27.4864,-24.5209c6.34546,-16.326 10.8415,-41.1658 13.52,-74.4874c2.6466,-40.0179 8.64131,-97.6691 17.9841,-173.017c13.3287,-122.668 19.993,-196.327 19.993,-220.975l0.00018,-0.0007z"/>
  <path id="svg_28" d="m495.998,10.0124c0,-52.0073 -10.3313,-99.3591 -30.9939,-142.024c-20.6626,-42.6645 -44.9922,-77.3253 -72.9887,-103.983c-28.6981,-27.3269 -58.5122,-49.5201 -89.5061,-66.5157c-30.9939,-16.9956 -57.8425,-25.4775 -80.514,-25.4775c-12.659,0 -21.6511,3.15679 -27.0081,9.50225c-5.32509,6.31357 -7.97168,13.807 -7.97168,22.4802c0,8.00357 14.9868,17.3464 44.9922,27.9966c45.3111,14.6679 87.3378,39.3482 125.985,74.0091c30.0054,26.6573 52.0073,57.0135 66.0055,91.0048c13.9983,33.9913 21.0134,68.6521 21.0134,103.983c0,40.0179 -2.51905,76.6876 -7.52527,110.009c-4.97433,33.3216 -12.8185,74.328 -23.5005,122.987c-11.9894,51.3376 -20.3119,95.0225 -24.9992,131.023c-11.3198,-30.675 -28.8256,-67.6637 -52.4856,-110.998c-23.66,-43.3341 -51.8478,-85.01 -84.4999,-124.996c-30.675,-38.009 -58.5122,-66.3563 -83.5114,-85.01c-24.9992,-18.6856 -49.1694,-27.9966 -72.4786,-27.9966c-20.0249,0 -34.8522,7.81225 -44.5139,23.5005c-9.66168,15.6564 -14.5085,37.1481 -14.5085,64.5069c0,45.3111 13.9983,98.6576 42.0267,159.976c27.9966,61.3501 62.9763,113.995 104.971,157.999c42.0267,44.0037 83.3519,66.0055 124.008,66.0055c13.9983,0 24.8398,-5.00622 32.4926,-14.9868c7.6847,-10.0124 11.5111,-22.0018 11.5111,-36.0001c0,-18.016 -3.66697,-27.0081 -11.0009,-27.0081c-2.00886,0 -4.49603,2.48717 -7.49338,7.49338c-2.99735,5.00622 -6.50489,9.50225 -10.4907,13.52c-4.01773,3.98584 -8.35433,5.99471 -13.0098,5.99471c-33.9913,0 -68.4927,-19.0045 -103.504,-57.0135c-35.0116,-38.009 -63.9967,-82.491 -86.987,-133.51c-23.0222,-50.9869 -34.5015,-92.8223 -34.5015,-125.474c0,-18.016 2.48717,-31.0258 7.49338,-38.9975c5.00622,-8.00357 12.8185,-12.0213 23.5005,-12.0213c16.0071,0 35.3305,9.34281 58.002,27.9966c22.6715,18.6856 49.6477,48.0214 80.9923,88.0074c27.9966,35.3305 53.5059,76.4963 76.4963,123.497c22.9903,47.0011 40.4962,91.8338 52.5175,134.498c1.30736,4.01773 3.47565,7.33395 6.47301,10.0124c3.02924,2.67849 6.50489,3.98584 10.5226,3.98584c5.99471,0 12.1488,-1.81754 18.4943,-5.48452c6.34546,-3.66697 9.50225,-7.49338 9.50225,-11.5111c0,-2.6466 -0.51019,-5.48452 -1.49868,-8.48187c-1.02038,-2.99735 -1.84943,-4.84678 -2.51905,-5.51641c4.68735,-36.6697 15.6883,-93.6514 33.0028,-171.009c12.6909,-54.6539 22.1932,-100.475 28.5067,-137.496c6.34546,-36.9886 9.50225,-73.1482 9.50225,-108.479l-0.00103,0.00182z"/>
  <path id="svg_29" d="m510.985,174.994c0,-33.3216 -11.1604,-66.165 -33.4811,-98.4981c-22.3526,-32.3332 -53.6654,-58.6716 -94.0021,-78.9835c-40.3367,-20.3437 -86.158,-30.5156 -137.496,-30.5156c-43.3341,0 -77.6761,3.50754 -102.994,10.4907c-25.35,7.01508 -38.009,16.8362 -38.009,29.5271c0,6.66433 4.8149,17.8247 14.5085,33.4811c9.66168,15.6564 17.1551,23.5005 22.4802,23.5005c8.00357,0 12.0213,-1.65811 12.0213,-5.00622c0,-1.97698 -1.17981,-4.3366 -3.50754,-6.9832c-2.32773,-2.67849 -3.50754,-5.32509 -3.50754,-8.00357c0,-2.00886 4.17716,-5.00622 12.4996,-8.99206c8.32244,-4.01773 21.1728,-7.6847 38.4873,-11.0009c17.3464,-3.34811 38.3597,-5.00622 63.0082,-5.00622c39.3482,0 73.8497,7.65282 103.504,22.9903c29.6547,15.3375 52.5175,34.6609 68.4927,58.002c16.0071,23.3411 24.0107,46.0126 24.0107,68.0144c0,28.6662 -13.8388,53.3146 -41.5165,73.9772c-27.6458,20.6626 -72.1597,40.3367 -133.478,59.0224c-59.3412,19.3234 -105.162,35.4899 -137.496,48.4997c-32.3332,12.9779 -58.5122,28.985 -78.5051,47.9895c-19.993,19.0045 -30.0054,42.1543 -30.0054,69.5131c0,36.6379 20.6626,72.8293 61.9878,108.479c41.3571,35.6813 92.344,64.6663 153.024,87.0189c60.6486,22.3207 116.992,33.4811 169,33.4811c26.6573,0 40.9745,-5.32509 42.9833,-16.0071c2.00886,-10.6502 2.99735,-22.6396 2.99735,-36.0001c0,-9.98055 -3.66697,-14.9868 -11.0009,-14.9868c-3.31622,0 -7.14263,1.17981 -11.4792,3.50754c-4.3366,2.32773 -8.19489,4.17716 -11.5111,5.48452c-3.98584,1.33924 -8.67319,2.67849 -13.9983,4.01773c-5.32509,1.33924 -13.0098,1.97698 -22.9903,1.97698c-34.6928,0 -76.3369,-8.99206 -125.028,-26.9762c-48.6592,-18.016 -90.8134,-40.3367 -126.495,-66.994c-35.6494,-26.6892 -53.5059,-52.358 -53.5059,-77.0065c0,-19.993 8.19489,-37.3394 24.5209,-52.0073c16.326,-14.6679 38.1684,-27.1675 65.4954,-37.4988c27.3269,-10.3313 66.0055,-23.1817 116.004,-38.4873c73.3395,-21.3322 127.483,-45.3429 162.495,-72.0003c35.0116,-26.6892 52.4856,-59.3412 52.4856,-98.0198l0.00113,-0.0002z"/>
  <path id="svg_30" d="m468.002,16.9956c0,-10.6502 -2.99735,-19.0045 -8.99206,-24.9992c-5.99471,-5.99471 -14.349,-8.99206 -24.9992,-8.99206c-13.3287,0 -25.5094,13.9983 -36.5103,41.9948c-11.0009,27.9966 -17.8247,57.0135 -20.5032,86.987c-2.67849,28.6662 -4.65546,86.6682 -5.99471,174.006c-0.66962,13.9983 -0.98849,28.1879 -0.98849,42.505c0,14.349 -0.35075,26.4979 -1.02038,36.5103c-19.3234,-46.0126 -45.6618,-98.3387 -78.9835,-157.01c-33.3535,-58.6716 -66.8346,-108.989 -100.507,-150.984c-33.6724,-42.0267 -61.1588,-63.0082 -82.491,-63.0082c-22.0018,0 -36.5103,11.6705 -43.5254,34.9798c-6.9832,23.3411 -10.4907,60.3616 -10.4907,111.03c0,47.3199 6.18603,100.985 18.4943,160.996c12.3402,59.979 26.4979,105.641 42.505,136.985c6.66433,13.9983 12.3402,23.5005 16.9956,28.5067c4.68735,5.00622 10.0124,7.49338 16.0071,7.49338c16.6768,0 24.9992,-3.31622 24.9992,-9.98055c0,-3.34811 -3.31622,-11.0009 -10.0124,-23.0222c-17.9841,-33.3216 -33.6405,-73.3395 -46.9692,-119.99c-13.3605,-46.6822 -20.0249,-109.34 -20.0249,-188.004c0,-52.6769 7.33395,-79.0153 22.0018,-79.0153c17.3464,0 40.8469,19.1958 70.5016,57.5237c29.6866,38.3279 59.1818,84.1491 88.5176,137.496c29.3358,53.3146 51.6565,99.6779 66.994,138.994c5.32509,13.3287 11.3198,33.9913 17.9841,61.9878c2.00886,11.3517 4.01773,19.5147 5.99471,24.5209c2.00886,5.00622 4.3366,7.49338 7.01508,7.49338c7.33395,0 15.3375,-2.99735 24.0107,-8.99206c8.64131,-5.99471 12.9779,-12.3402 12.9779,-19.0045c0,-32.0143 1.17981,-86.8276 3.50754,-164.504c2.32773,-77.6761 5.16565,-131.501 8.51376,-161.506c2.6466,-25.9877 7.49338,-46.3314 14.4766,-60.9993c7.01508,-14.6679 13.8388,-26.1471 20.5032,-34.5015c6.66433,-8.32244 10.0124,-13.4881 10.0124,-15.497l0.00025,0.00011z"/>
  <path id="svg_31" d="m409.011,684.002c0,-13.3287 -0.66962,-39.5077 -2.00886,-78.5051c-1.33924,-38.9975 -2.00886,-78.1544 -2.00886,-117.503c0,-75.9861 1.65811,-153.503 5.00622,-232.486c3.34811,-79.0153 5.99471,-130.831 8.00357,-155.512c0,-3.98584 0.31887,-8.32244 0.98849,-13.0098c0.66962,-4.65546 1.33924,-8.99206 2.00886,-12.9779c2.67849,-18.6856 3.98584,-30.0054 3.98584,-34.0231c0,-6.66433 -4.8149,-12.9779 -14.4766,-18.9726c-9.66168,-6.02659 -17.187,-9.02395 -22.512,-9.02395c-7.33395,0 -12.1488,2.83792 -14.5085,8.51376c-2.32773,5.67584 -3.47565,13.4881 -3.47565,23.5005c0,36.6697 0.98849,74.9976 2.99735,114.984l0.98849,56.025c0,18.6537 -0.31887,43.1428 -0.98849,73.4989c-0.66962,30.3243 -1.69,55.8337 -2.99735,76.4963c-34.0231,-109.34 -72.5104,-199.834 -115.526,-271.516c-42.9833,-71.6495 -89.4742,-107.49 -139.473,-107.49c-22.6715,0 -41.8354,10.6502 -57.5237,31.9824c-15.6564,21.3641 -23.5005,52.0073 -23.5005,92.0251c0,52.645 17.8566,109.977 53.5059,171.997c35.6813,61.9878 76.3369,115.334 121.999,160.008c45.6618,44.6414 79.4936,66.994 101.495,66.994c21.3322,0 32.0143,-7.01508 32.0143,-21.0134c0,-9.34281 -3.15679,-20.1524 -9.50225,-32.4926c-6.34546,-12.3402 -13.3287,-23.5005 -21.0134,-33.513c-7.65282,-9.98055 -12.1488,-14.9868 -13.4881,-14.9868c-1.33924,0 -2.83792,0.51019 -4.49603,1.49868c-1.65811,0.98849 -2.51905,2.1683 -2.51905,3.50754c0,3.31622 1.69,8.99206 5.00622,16.9956c3.34811,8.00357 5.00622,13.3287 5.00622,16.0071c0,3.31622 -0.31887,5.64395 -0.98849,6.9832c-0.66962,1.33924 -2.67849,2.00886 -6.02659,2.00886c-13.9983,0 -39.1569,-19.1639 -75.4759,-57.4918c-36.3509,-38.3597 -68.8435,-83.8302 -97.5096,-136.507c-28.6662,-52.6769 -42.9833,-101.687 -42.9833,-146.998c0,-16.0071 3.31622,-30.9939 9.98055,-44.9922c6.66433,-14.0302 17.6653,-21.0134 33.0028,-21.0134c48.6592,0 93.8427,41.1658 135.487,123.497c41.676,82.3316 77.8355,175.823 108.511,280.508l-2.00886,83.9897c-1.97698,74.0091 -2.99735,113.325 -2.99735,118.013c0,39.986 1.69,68.6521 5.00622,85.9985c1.33924,6.66433 2.83792,11.3198 4.49603,13.9983c1.69,2.6466 5.16565,3.98584 10.5226,3.98584c6.66433,0 13.3287,-2.1683 19.993,-6.50489c6.66433,-4.30471 9.98055,-10.14 9.98055,-17.4739l-1.97698,-49.0099l0.0002,0.00006z"/>
  <path id="svg_32" d="m645.993,310.003c0,-32.0143 -11.6705,-64.1561 -34.9798,-96.4893c-23.3411,-32.3332 -55.3554,-68.8435 -96.011,-109.499c-30.0054,-30.0054 -65.3359,-59.3412 -105.992,-88.0074c-26.6892,-18.6856 -52.8363,-34.6609 -78.5051,-48.0214c-25.6688,-13.3287 -45.1835,-19.993 -58.5122,-19.993c-6.66433,0 -12.4996,1.84943 -17.5058,5.51641c-4.97433,3.66697 -7.49338,9.15149 -7.49338,16.4854c0,10.6821 4.01773,19.8336 11.9894,27.5183c8.00357,7.65282 18.6856,13.807 32.0143,18.4943c6.66433,2.6466 16.0071,5.32509 27.9966,8.00357c15.3375,2.6466 29.0169,6.9832 41.0063,12.9779c22.6715,11.3517 49.1694,28.8575 79.4936,52.5175c30.3243,23.66 54.1756,44.8328 71.4901,63.4865c28.6662,30.675 50.5086,57.8425 65.5272,81.5025c14.9868,23.66 22.4802,48.1809 22.4802,73.4989c0,13.9983 -6.66433,24.1701 -19.993,30.5156c-13.3287,6.31357 -29.6547,9.50225 -49.0099,9.50225c-49.3288,0 -94.321,-8.67319 -134.977,-26.0196c-18.016,-8.00357 -30.3562,-13.6475 -37.0205,-16.9956c-23.9788,-10.6502 -43.6529,-19.0045 -58.9905,-24.9992c-17.3464,-6.66433 -33.9913,-12.4996 -49.9984,-17.5058c-16.0071,-5.00622 -26.6573,-8.48187 -32.0143,-10.4907l2.00886,-38.009c0,-9.98055 0.51019,-25.9877 1.49868,-47.9895c0.98849,-22.0018 1.49868,-42.6645 1.49868,-61.9878c0,-46.0126 -3.31622,-83.3519 -9.98055,-112.018c-2.67849,-9.34281 -5.67584,-16.0071 -9.02395,-19.993c-3.31622,-4.01773 -9.66168,-5.99471 -19.0045,-5.99471c-5.99471,0 -11.6387,1.97698 -16.9956,5.99471c-5.32509,3.98584 -8.00357,8.99206 -8.00357,14.9868c0,2.00886 2.99735,13.3287 9.02395,34.0231c5.99471,20.6626 8.99206,38.9975 8.99206,54.9727c0,52.0073 -2.32773,118.332 -7.01508,199.005l-2.99735,46.0126c-3.98584,44.0037 -5.99471,78.6646 -5.99471,103.983c0,19.3553 1.33924,43.8443 4.01773,73.4989c2.6466,29.6866 4.65546,49.1694 5.99471,58.5122c-25.35,-6.66433 -57.6831,-18.6537 -96.9995,-36.0001c-11.3517,-4.65546 -26.0196,-13.0098 -44.0037,-24.9992c-16.6768,-10.6502 -27.9966,-16.0071 -33.9913,-16.0071c-5.35697,0 -10.0124,2.32773 -13.9983,7.01508c-4.01773,4.65546 -6.02659,10.3313 -6.02659,16.9956c0,12.659 22.3526,28.985 67.0259,49.0099c44.6414,19.993 93.3325,37.6582 145.977,52.9958c47.3518,13.9983 89.3466,24.3296 126.016,30.9939c36.6697,6.66433 74.328,10.0124 113.007,10.0124c35.3305,0 64.8257,-6.85565 88.4857,-20.5032c23.66,-13.6794 35.4899,-32.8433 35.4899,-57.5237c0,-58.6397 -31.9824,-119.32 -95.9791,-181.978c28.6662,3.98584 54.6539,5.99471 77.995,5.99471c30.675,0 56.9816,-6.34546 78.9835,-19.0045c22.0018,-12.659 33.0028,-33.9913 33.0028,-63.9967l0.00151,-0.00002zm-141.003,246.006c0,15.9753 -7.65282,28.156 -22.9903,36.4784c-15.3375,8.35433 -36.0001,12.4996 -61.9878,12.4996c-27.3588,0 -61.669,-3.15679 -103.026,-9.50225c-41.3252,-6.31357 -73.3076,-13.1373 -95.9791,-20.4713c-11.3517,-45.3429 -16.9956,-83.3519 -16.9956,-114.027c0,-43.3341 1.97698,-97.9879 5.99471,-163.993c6.66433,0.66962 17.5058,3.34811 32.4926,8.00357c14.9868,4.65546 28.8256,9.66168 41.5165,15.0187c63.3271,26.6573 115.972,61.3182 157.999,103.983c41.9948,42.6645 62.9763,86.6682 62.9763,132.011l-0.00031,-0.00072z"/>
  <path id="svg_33" d="m393.993,421.001c0,-5.99471 -4.14528,-12.8185 -12.4996,-20.5032c-8.32244,-7.65282 -15.497,-11.5111 -21.4917,-11.5111c-4.65546,0 -9.18338,2.00886 -13.4881,6.02659c-4.3366,3.98584 -9.18338,9.66168 -14.5085,16.9956c-4.65546,6.66433 -10.8415,12.3402 -18.4943,16.9956c-7.6847,4.65546 -15.497,6.9832 -23.5005,6.9832c-19.3553,0 -45.3429,-25.4775 -77.995,-76.4963c-32.6839,-50.9869 -64.6663,-115.143 -96.011,-192.5c0.66962,-15.3375 1.81754,-34.6609 3.50754,-58.002c1.65811,-23.3092 2.80603,-40.6556 3.47565,-51.9754l2.99735,-40.0179c0,-9.34281 -1.97698,-17.5058 -5.99471,-24.489c-3.98584,-7.01508 -11.3198,-10.4907 -22.0018,-10.4907c-11.3198,0 -18.6537,15.1462 -22.0018,45.4705c-3.31622,30.3562 -5.32509,74.5193 -5.99471,132.521c-0.66962,14.6679 -1.14792,35.6494 -1.49868,63.0082c-0.31887,27.3269 -1.14792,59.979 -2.48717,97.9879c-2.00886,57.3324 -2.99735,98.3387 -2.99735,122.987c0,15.3375 9.31093,23.0222 27.9966,23.0222c11.3198,0 18.1754,-4.84678 20.5032,-14.5085c2.32773,-9.66168 3.50754,-28.156 3.50754,-55.5148l0,-158.987c19.993,51.3376 41.6441,95.6602 64.9852,133c23.3411,37.3394 46.172,65.8461 68.4927,85.4883c22.3526,19.6741 42.1862,29.4952 59.5007,29.4952c14.6679,0 28.6662,-3.31622 41.9948,-9.98055c13.3287,-6.66433 24.0107,-15.1781 32.0143,-25.5094c8.00357,-10.3313 11.9894,-20.1524 11.9894,-29.4952l-0.00006,-0.00024z"/>
  <path id="svg_34" d="m171.997,-10.0124c0,-9.98055 -11.0009,-14.9868 -33.0028,-14.9868c-12.659,0 -24.1701,7.17452 -34.5015,21.4917c-10.3313,14.349 -18.6537,30.3562 -24.9992,48.0214c-6.31357,17.6653 -9.50225,29.1445 -9.50225,34.5015c0,7.30206 3.50754,14.3171 10.5226,20.9815c6.9832,6.66433 14.1577,10.0124 21.4917,10.0124c4.65546,0 8.32244,-1.84943 11.0009,-5.51641c2.6466,-3.66697 6.66433,-9.82112 11.9894,-18.4943c6.66433,-11.9894 12.3402,-19.6741 16.9956,-22.9903c8.67319,-6.66433 15.8477,-19.0045 21.5235,-37.0205c5.64395,-17.9841 8.48187,-29.9735 8.48187,-36.0001l0.00018,-0.00009z"/>
  <path id="svg_35" d="m465.004,63.9967c0.66962,-4.65546 3.31622,-9.50225 8.00357,-14.5085c4.65546,-4.97433 6.9832,-9.15149 6.9832,-12.4996c0,-8.00357 -3.31622,-17.1551 -9.98055,-27.4864c-6.66433,-10.3313 -13.3287,-15.497 -20.0249,-15.497c-11.3198,0 -19.993,6.9832 -25.9877,20.9815c-5.99471,13.9983 -8.99206,30.3562 -8.99206,49.0099c0,16.0071 0.98849,63.9967 2.99735,144.001l0.98849,38.009c0,15.3375 -3.98584,26.3384 -11.9894,33.0028c-30.0054,-50.668 -58.002,-94.6717 -83.9897,-132.011c-26.0196,-37.3394 -59.0224,-72.5104 -99.0083,-105.513c-40.0179,-32.9709 -82.0127,-49.4882 -126.016,-49.4882c-21.3322,0 -37.8177,6.66433 -49.4882,19.993c-11.6705,13.3287 -17.5058,30.675 -17.5058,52.0073c0,26.6573 12.0213,63.1676 36.0001,109.499c24.0107,46.3314 54.6858,93.3325 91.9932,141.003c37.3394,47.6707 74.6787,86.8276 112.018,117.503c24.6484,19.993 44.3226,33.513 58.9905,40.4962c14.6679,7.01508 27.6777,10.4907 38.9975,10.4907c10.6821,0 21.683,-3.31622 33.0028,-9.98055c11.3517,-6.66433 21.0134,-16.0071 29.0169,-27.9966c7.97168,-12.0213 11.9894,-25.6688 11.9894,-41.0063c0,-20.6626 -5.67584,-40.3367 -16.9956,-58.9905l16.9956,4.97433c7.33395,0 11.6705,-8.99206 13.0098,-26.9762c0.66962,-10.6821 1.49868,-32.3332 2.48717,-65.0171c0.98849,-32.652 1.84943,-59.6601 2.48717,-80.9923c0.66962,-22.0018 1.33924,-43.3341 2.00886,-63.9967c0.66962,-20.6626 1.33924,-37.0205 2.00886,-49.0099l-0.00026,-0.00088zm-353.018,-17.9841c36.0001,0 70.6929,13.3287 104.015,39.986c33.3216,26.6573 63.1676,58.5122 89.5061,95.5008c26.3384,36.9886 55.4829,82.491 87.4972,136.507c8.00357,19.993 11.9894,41.676 11.9894,64.9852c0,13.9983 -4.14528,26.179 -12.4996,36.5103c-8.32244,10.3313 -19.4828,15.497 -33.4811,15.497c-16.6768,0 -38.009,-11.3198 -64.0286,-33.9913c-29.9735,-25.35 -61.6371,-59.1818 -94.9906,-101.495c-33.3216,-42.3456 -60.9993,-84.181 -83.0012,-125.506c-22.0018,-41.3252 -33.0028,-74.0091 -33.0028,-98.0198c0,-19.993 9.34281,-29.9735 27.9966,-29.9735l-0.0004,-0.0007z"/>
  <path id="svg_36" d="m398.01,207.009c0,-26.0196 -9.66168,-55.9931 -29.0169,-90.0163c-19.3234,-33.9913 -46.6503,-63.1676 -81.9808,-87.4972c-35.3305,-24.3296 -75.6672,-36.5103 -121.01,-36.5103c-44.6733,0 -77.6761,12.3402 -99.0083,37.0205c-21.3322,24.6484 -31.9824,55.3235 -31.9824,91.9932c0,32.0143 5.83527,71.6814 17.4739,119.001c11.6705,47.3199 28.1879,89.6655 49.5201,127.005c1.33924,2.6466 6.82376,12.4996 16.4854,29.4952c9.66168,16.9956 20.5032,30.0054 32.5245,38.9975c11.9894,8.99206 24.6484,13.4881 37.9771,13.4881c5.99471,0 11.5111,-1.49868 16.5173,-4.49603c4.97433,-2.99735 7.49338,-6.82376 7.49338,-11.4792c0,-1.33924 -1.84943,-4.49603 -5.51641,-9.50225c-3.66697,-5.00622 -6.47301,-8.83263 -8.48187,-11.5111c-22.6715,-27.3269 -41.0063,-54.335 -55.0046,-80.9923c-18.6537,-33.9913 -33.1622,-67.6637 -43.4935,-101.017c-10.3313,-33.3216 -15.497,-69.6406 -15.497,-108.989c0,-52.6769 31.9824,-78.9835 95.9791,-78.9835c30.0054,0 57.8425,8.64131 83.5114,25.9877c25.6688,17.3145 46.172,38.4873 61.5095,63.4865c15.3375,24.9992 22.9903,47.8301 22.9903,68.5246c0,23.3092 -7.65282,43.6529 -22.9903,60.9993c-15.3375,17.3145 -36.3509,35.6494 -63.0082,54.9727c-17.3464,12.6909 -30.0054,23.0222 -38.009,31.0258c-8.00357,8.00357 -11.9894,14.6679 -11.9894,19.993c0,8.00357 5.67584,14.5085 16.9956,19.4828c11.3198,5.00622 24.6803,7.52527 39.986,7.52527c8.67319,0 14.349,-0.51019 17.0275,-1.49868c2.6466,-1.02038 3.98584,-2.83792 3.98584,-5.51641c0,-1.33924 -1.17981,-3.50754 -3.50754,-6.50489c-2.32773,-2.99735 -3.47565,-5.48452 -3.47565,-7.49338c0,-2.00886 6.66433,-8.67319 19.993,-19.993c26.6573,-22.0018 48.978,-44.3545 66.994,-66.994c17.9841,-22.6715 27.0081,-49.3607 27.0081,-80.0038l-0.00015,0.00017z"/>
  <path id="svg_37" d="m183.986,643.985c0,-9.98055 -7.81225,-31.6635 -23.5005,-64.9852c-15.6564,-33.3216 -32.8115,-63.9967 -51.4971,-91.9932c-18.6537,-27.9966 -32.652,-41.9948 -41.9948,-41.9948c-6.66433,0 -12.1488,1.81754 -16.4854,5.48452c-4.3366,3.66697 -6.50489,8.51376 -6.50489,14.5085c0,3.98584 3.82641,13.4881 11.5111,28.5067c7.65282,14.9868 12.4996,24.1701 14.4766,27.4864l27.9966,54.0161l18.016,45.9807c7.33395,19.993 13.3287,34.8522 17.9841,44.5139c4.68735,9.66168 9.34281,14.4766 13.9983,14.4766c7.33395,0 15.1781,-4.14528 23.5005,-12.4996c8.35433,-8.32244 12.4996,-16.1666 12.4996,-23.5005l-0.00011,-0.00012z"/>
  <path id="svg_38" d="m116.992,626c0,-10.0124 -11.0009,-14.9868 -33.0028,-14.9868c-11.3198,0 -22.8309,4.65546 -34.5015,13.9983c-11.6705,9.31093 -17.4739,16.9956 -17.4739,22.9903c0,7.33395 3.47565,14.3171 10.4907,21.0134c6.9832,6.66433 14.1577,9.98055 21.4917,9.98055c0,0 2.51905,-0.82905 7.49338,-2.48717c5.00622,-1.69 10.8415,-6.18603 17.5058,-13.52c5.32509,-5.32509 11.3517,-12.3083 18.016,-20.9815c6.66433,-8.67319 9.98055,-13.9983 9.98055,-16.0071l0.00007,0.00002zm24.9992,-628.998c0,-6.66433 -2.83792,-11.83 -8.48187,-15.497c-5.67584,-3.66697 -12.1807,-5.16565 -19.5147,-4.49603c-9.34281,0.66962 -16.1666,15.6564 -20.5032,44.9922c-4.3366,29.3358 -8.83263,85.01 -13.4881,166.991c-2.67849,54.0161 -5.00622,106.852 -7.01508,158.509c-1.97698,51.6565 -3.31622,91.4831 -3.98584,119.511c0,7.33395 1.14792,12.8185 3.50754,16.4854c2.32773,3.66697 6.82376,5.51641 13.4881,5.51641c15.3375,0 24.9992,-6.34546 29.0169,-19.0045c3.98584,-12.6909 5.99471,-37.0205 5.99471,-73.0206l-1.02038,-117.981c0,-67.3448 2.00886,-121.329 5.99471,-162.017c0,-1.97698 3.02924,-23.3411 9.02395,-63.9967c4.65546,-27.9966 6.9832,-46.6503 6.9832,-55.9931l0.00006,0.00092z"/>
  <path id="svg_39" d="m0,0z"/>
  <path id="svg_40" d="m87.0024,0l0,451l-78.0031,0l0,68.0014l78.0031,0l0,54.998c0,34.8371 2.99586,60.6691 9.16244,77.5019c8.50382,22.6671 23.1684,41.1669 44.5008,55.3302c21.1692,14.1691 50.9996,21.1692 89.3338,21.1692c24.8353,0 52.1653,-3.00169 82.1647,-8.83604l-13.1666,-76.9948c-18.3307,3.16489 -35.4957,4.83185 -51.8331,4.83185c-26.6655,0 -45.4975,-5.66533 -56.6649,-17.0018c-10.9984,-11.3307 -16.5006,-32.4999 -16.5006,-63.5018l0,-47.4966l101.003,0l0,-68.0014l-100,0l0,-451l-87.9991,0l-0.00044,-0.00011z"/>
  <path id="svg_41" d="m66.0022,0l0,519.001l78.9998,0l0,-73.6667c37.9962,56.5017 92.9999,84.6652 164.831,84.6652c31.3341,0 59.9988,-5.66533 86.1689,-16.8328c26.1642,-11.1675 45.8297,-26.001 58.8331,-44.1686c12.9976,-18.1675 22.1659,-39.8321 27.33,-64.8307c3.17072,-16.3315 4.83768,-44.833 4.83768,-85.4986l0,-318.669l-88.0049,0l0,315.335c0,35.8338 -3.32809,62.6625 -10.1649,80.3346c-6.83103,17.6663 -19.001,31.8296 -36.335,42.4958c-17.3282,10.503 -37.833,15.8361 -61.1645,15.8361c-37.3317,0 -69.4993,-11.8319 -96.6661,-35.6706c-27.1668,-23.6638 -40.6656,-68.829 -40.6656,-135.163l0,-283.167l-87.9991,0l-0.00038,-0.0007z"/>
  <path id="svg_42" d="m419.998,168.001l91.0008,-12.0009c-14.1633,-52.8356 -40.6656,-94.0024 -79.3321,-123.168c-38.6664,-29.1659 -87.9991,-43.8305 -148.167,-43.8305c-75.6659,0 -135.665,23.3316 -180.002,70.0006c-44.3318,46.5 -66.4976,111.995 -66.4976,196.165c0,87.0024 22.3349,154.666 67.1679,202.664c44.833,48.1669 103.002,72.1688 174.5,72.1688c69.1671,0 125.663,-23.5006 169.499,-70.665c43.8305,-47.1703 65.8332,-113.499 65.8332,-199.003c0,-5.16407 -0.16903,-12.9976 -0.50125,-23.3316l-386.501,0c3.33392,-56.8339 19.3332,-100.501 48.336,-130.664c28.8337,-30.1684 64.9997,-45.3343 108.166,-45.3343c32.1676,0 59.6666,8.49799 82.3337,25.4998c22.8362,16.996 40.8346,44.1627 54.1645,81.5003l-0.00015,-0.0012zm-287.999,140.998l289.002,0c-3.83517,43.6673 -15.0026,76.3362 -33.1643,98.1698c-27.837,33.8288 -64.1721,50.8306 -108.667,50.8306c-40.3334,0 -74.168,-13.4989 -101.667,-40.5024c-27.3358,-26.9977 -42.5016,-63.1637 -45.5033,-108.498l-0.0004,0z"/>
  <path id="svg_43" d="m31.0019,154.998l86.9966,14.0001c4.83768,-34.8313 18.4997,-61.4968 40.8346,-80.1655c22.3349,-18.4997 53.6691,-27.8312 93.6644,-27.8312c40.5024,0 70.5018,8.16576 90.1673,24.6663c19.5022,16.3315 29.335,35.6647 29.335,57.8306c0,19.8345 -8.83022,35.5015 -26.3333,46.8322c-12.3332,7.83354 -42.3326,17.6721 -89.9983,29.8362c-64.3353,16.1683 -108.836,30.1684 -133.835,42.0003c-24.8353,12.0009 -43.6673,28.3325 -56.5017,49.3326c-12.8344,20.8311 -19.3332,43.9995 -19.3332,69.3361c0,23.1626 5.3331,44.495 15.8361,64.1662c10.6662,19.6654 24.9985,35.997 43.1661,49.0004c13.6679,9.99592 32.3308,18.4997 55.8314,25.4998c23.6696,7.00006 48.8372,10.4972 75.8349,10.4972c40.6656,0 76.3304,-5.83435 107,-17.6663c30.8329,-11.6687 53.5,-27.668 68.1646,-47.6657c14.5014,-20.1667 24.6663,-47.0012 30.1684,-80.6668l-85.9999,-12.0009c-3.83517,26.9977 -15.1658,48.1669 -33.8346,63.3328c-18.6688,15.1658 -45.002,22.6671 -79.163,22.6671c-40.1702,0 -69.0039,-6.66783 -86.1689,-19.9977c-17.165,-13.3357 -25.832,-29.0027 -25.832,-46.838c0,-11.3307 3.49711,-21.6646 10.6662,-30.8329c7.16326,-9.33147 18.3307,-17.165 33.6656,-23.3316c8.83022,-3.33392 34.499,-10.8352 77.5019,-22.4981c61.998,-16.5006 105.333,-30.1684 129.999,-40.6656c24.6663,-10.503 43.9995,-26.001 57.9997,-46.0045c14.1633,-20.1667 21.1634,-45.1652 21.1634,-75.1647c0,-29.1659 -8.49799,-56.6649 -25.663,-82.5028c-17.1708,-25.832 -41.8372,-45.8297 -73.999,-59.9988c-32.3367,-14.1633 -68.8349,-21.1634 -109.5,-21.1634c-67.3369,0 -118.838,14.0001 -154.17,41.8313c-35.3325,28.0002 -57.8306,69.3361 -67.6633,124.165l0,0.0003z"/>
  <path id="svg_44" d="m49.8339,-43.0029l84.9974,-11.9951c3.50294,-26.3333 13.5047,-45.5033 29.8362,-57.6674c21.8337,-16.1683 51.664,-24.3341 89.497,-24.3341c40.6714,0 72.1688,8.16576 94.3347,24.3341c22.1659,16.1625 37.1685,38.9987 45.002,68.1646c4.49962,17.8353 6.66783,55.336 6.32978,112.502c-38.4974,-45.3343 -86.3321,-68.0014 -143.661,-68.0014c-71.3353,0 -126.671,25.6688 -165.67,77.1638c-39.1677,51.3376 -58.6641,113.003 -58.6641,184.834c0,49.5017 8.99924,95.1682 26.8287,136.999c17.8353,41.8372 43.8363,74.0048 77.8341,96.8351c34.0036,22.8362 73.999,34.1668 120.003,34.1668c61.1645,0 111.663,-24.9985 151.332,-75.0015l0,64.003l80.999,0l0,-448.167c0,-80.8358 -8.16576,-138.002 -24.6663,-171.668c-16.3315,-33.6656 -42.5016,-60.3311 -77.9973,-79.8333c-35.6706,-19.5022 -79.5011,-29.335 -131.503,-29.335c-61.8348,0 -111.663,13.8369 -149.665,41.6681c-38.1652,27.668 -56.5017,69.4993 -55.167,125.331l-0.00018,0.0013zm71.9998,311.336c0,-67.8324 13.4989,-117.334 40.5024,-148.499c27.1668,-31.1651 60.9955,-46.8322 101.661,-46.8322c40.5024,0 74.337,15.498 101.836,46.5c27.3358,30.9961 40.9978,79.6643 40.9978,145.999c0,63.3328 -14.1633,111.167 -42.3326,143.335c-28.1634,32.1618 -62.167,48.1611 -101.83,48.1611c-39.1677,0 -72.3378,-15.8303 -99.8368,-47.4966c-27.33,-31.6664 -40.9978,-78.6676 -40.9978,-141.167l0,-0.0003z"/>
  <path id="svg_45" d="m45.9987,229.999l89.0016,8.00256c4.1674,-36.0028 14.0001,-65.501 29.4982,-88.6693c15.5039,-22.9994 39.4999,-41.6681 71.9998,-56.0005c32.4999,-14.1633 69.1671,-21.3324 109.833,-21.3324c36.1718,0 68.0014,5.3331 95.6694,16.1683c27.668,10.8294 48.1669,25.663 61.6658,44.5008c13.4989,18.832 20.3357,39.3309 20.3357,61.3336c0,22.3291 -6.50463,41.8313 -19.5022,58.6641c-12.9976,16.6696 -34.499,30.6697 -64.4985,42.1694c-19.17,7.33228 -61.6658,18.9952 -127.499,34.8313c-65.8332,15.8303 -111.838,30.6639 -138.171,44.664c-34.1668,18.0043 -59.4976,40.3334 -76.1672,66.8357c-16.8328,26.5023 -25.1617,56.3327 -25.1617,89.1648c0,36.335 10.334,70.1696 30.8329,101.504c20.4989,31.4973 50.3293,55.3302 89.8292,71.6617c39.3367,16.3374 83.1672,24.5031 131.334,24.5031c52.9988,0 99.8368,-8.49799 140.333,-25.6688c40.5024,-16.996 71.6675,-42.1635 93.5012,-75.4969c21.8337,-33.1701 33.5024,-70.8341 35.1693,-112.834l-91.0008,-7.00006c-4.83768,45.1652 -21.3324,79.3321 -49.5017,102.331c-28.1693,23.1684 -69.8316,34.6681 -124.835,34.6681c-57.3294,0 -99.1665,-10.4972 -125.331,-31.4973c-26.1701,-21.0002 -39.3367,-46.3368 -39.3367,-76.004c0,-25.663 9.3373,-46.8322 27.837,-63.4959c18.3307,-16.5006 65.8332,-33.6714 142.834,-50.9996c77.0006,-17.5031 129.83,-32.6689 158.501,-45.6665c41.4991,-19.17 72.332,-43.3351 92.1665,-72.8391c19.8286,-29.3291 29.6672,-63.1637 29.6672,-101.498c0,-38.1652 -10.8352,-73.8299 -32.6689,-107.501c-21.8337,-33.6656 -52.9988,-59.8298 -93.8334,-78.4986c-40.8346,-18.6688 -86.6643,-28.0002 -137.833,-28.0002c-64.6675,0 -118.832,9.5005 -162.499,28.3325c-43.8363,18.8378 -78.0031,47.1703 -102.833,85.1664c-25.0044,37.833 -38.002,80.6668 -39.3367,128.501l0,-0.0002z"/>
  <path id="svg_46" d="m405.001,64.9997c-32.6689,-27.8312 -64.1662,-47.3334 -94.3347,-58.8331c-30.1684,-11.4997 -62.4993,-17.165 -97.1673,-17.165c-56.9971,0 -100.833,13.8311 -131.497,41.6623c-30.6697,27.668 -45.9987,63.1696 -45.9987,106.336c0,25.3366 5.82852,48.4992 17.3282,69.4993c11.6687,21.0002 26.8345,37.6698 45.5033,50.3351c18.832,12.6654 39.8321,22.3349 63.3328,28.8337c17.334,4.49962 43.4983,8.83022 78.3354,13.1666c70.9973,8.33479 123.495,18.4997 156.997,30.1684c0.33223,11.9951 0.50125,19.6654 0.50125,22.8303c0,35.6647 -8.33479,60.8323 -24.9985,75.5027c-22.5039,19.8286 -56.0005,29.6614 -100.338,29.6614c-41.4991,0 -72.163,-7.33228 -91.8284,-21.8278c-19.8345,-14.5014 -34.3358,-40.1702 -43.8363,-77.1697l-85.9999,12.0009c7.83354,36.8304 20.6679,66.6667 38.6664,89.3338c17.9985,22.6671 43.9995,40.0012 78.0031,52.3343c33.8288,12.1641 73.3287,18.3307 117.998,18.3307c44.3318,0 80.4978,-5.16407 108.335,-15.6671c27.6622,-10.4972 48.1669,-23.5006 61.1645,-39.3309c12.9976,-15.8361 22.1659,-35.8338 27.499,-59.9988c2.83266,-15.0026 4.33642,-42.0003 4.33642,-80.8358l0,-116.67c0,-81.4944 1.83016,-132.995 5.4963,-154.829c3.50294,-21.8337 10.8352,-42.6706 21.5014,-62.6683l-91.9974,0c-8.83604,18.4997 -14.5014,40.1644 -17.0018,64.9997l-0.00007,0.0003zm-7.00006,194.999c-31.9986,-12.9976 -80.0023,-23.996 -144,-33.0011c-36.335,-5.16407 -62.0038,-10.9984 -77.0006,-17.4972c-15.0026,-6.49881 -26.5023,-15.9993 -34.6681,-28.3325c-8.16576,-12.5022 -12.3332,-26.3333 -12.3332,-41.6681c0,-23.1684 8.83604,-42.6648 26.6655,-58.1687c17.8353,-15.498 43.8363,-23.3316 78.0031,-23.3316c33.8346,0 63.9972,7.33228 90.4995,22.1659c26.3333,14.6704 45.8297,34.8371 58.1687,60.3369c9.49467,19.8286 14.1633,49.0004 14.1633,87.4978l0.50125,31.9986l0.00055,0z"/>
  <path id="svg_47" d="m66.0022,615.999l0,100l87.9991,0l0,-100l-87.9991,0zm0,-615.999l0,519.001l87.9991,0l0,-519.001l-87.9991,0z"/>
  <style type="text/css">
   <![CDATA[
    @font-face { font-family:"Trebuchet MS";src:url("#FontID2") format(svg)}
    @font-face { font-family:"Ink Free";src:url("#FontID1") format(svg)}
    @font-face { font-family:"Arial";src:url("#FontID0") format(svg)}
    .fil0 {fill:none}
    .fil2 {fill:#00A0E3}
    .fil1 {fill:#1C1B17}
    .fil3 {fill:#E31E24}
    .fnt1 {font-weight:normal;font-size:117.115px;font-family:'Ink Free'}
    .fnt2 {font-weight:normal;font-size:117.115px;font-family:'Trebuchet MS'}
    .fnt0 {font-weight:normal;font-size:640.712px;font-family:'Arial'}
   ]]>
  </style>
 </defs>
 <g>
  <title>background</title>
  <rect fill="none" id="canvas_background" height="986" width="986" y="-1" x="-1"/>
 </g>
 <g>
  <title>Layer 1</title>
  <g id="Layer_x0020_1">
   <metadata transform="translate(1,1) translate(-4.999982833862305,0) " id="CorelCorpID_0Corel-Layer"/>
   <rect y="0" id="svg_49" ry="174" rx="174" height="984" width="984" x="0" class="fil1"/>
   <path id="svg_50" d="m454.00143,128.00063l2,141c0,6 2,5 1,16c-1,7 0,3 -3,7l-22,-136c-67,16 -109,44 -151,86c-36,37 -61,86 -71,138c-5,21 3,20 -31,20l0,79c10,1 11,3 22,3c247,0 345,-14 571,116l-3,-116l14,0c11,0 12,-2 22,-3l0,-79c-49,0 -11,2 -51,-85c-12,-24 -32,-54 -49,-71c-46,-45 -86,-72 -153,-88c0,19 -7,49 -10,69c-2,13 -5,56 -15,67c0,-16 -1,-31 1,-46l2,-118c0,-12 -3,-18 -6,-26c-22,-5 -21,-3 -48,-3c-17,0 -22,11 -22,29z" class="fil2"/>
   <path id="svg_51" d="m289.00143,517.00063l0,73c115,22 186,44 296,82c-36,61 -39,64 -93,109c-50,-39 -82,-55 -97,-119l-92,-9c43,108 91,164 189,226c123,-81 133,-106 190,-241c-141,-58 -243,-92 -393,-121z" class="fil3"/>
  </g>
 </g>
</svg>