<?xml version="1.0" standalone="no"?>
<!DOCTYPE svg PUBLIC "-//W3C//DTD SVG 20010904//EN"
 "http://www.w3.org/TR/2001/REC-SVG-20010904/DTD/svg10.dtd">
<svg version="1.0" xmlns="http://www.w3.org/2000/svg"
 width="700.000000pt" height="700.000000pt" viewBox="0 0 700.000000 700.000000"
 preserveAspectRatio="xMidYMid meet">
<metadata>
Created by potrace 1.11, written by Peter Selinger 2001-2013
</metadata>
<g transform="translate(0.000000,700.000000) scale(0.100000,-0.100000)"
fill="#000000" stroke="none">
<path d="M1075 6990 c-22 -5 -53 -11 -70 -13 -72 -14 -94 -19 -155 -39 -366
-117 -669 -423 -789 -796 -63 -194 -59 -37 -60 -2632 0 -2602 -3 -2453 59
-2650 61 -191 155 -345 300 -490 148 -148 306 -247 498 -309 193 -63 50 -60
2687 -58 2275 2 2403 4 2465 21 36 9 72 19 80 21 35 7 144 47 197 72 138 64
242 139 363 263 164 167 266 357 326 610 17 71 18 207 21 2480 2 2447 3 2406
-30 2580 -21 110 -113 314 -195 428 -61 87 -210 237 -292 294 -149 104 -317
174 -505 209 -96 17 -204 18 -2480 17 -1309 0 -2398 -4 -2420 -8z"/>
</g>
</svg>
